<svg xmlns="http://www.w3.org/2000/svg" width="25" height="22" viewBox="0 0 25 22">
  <path fill="#EA3500" fill-rule="evenodd" d="M469.15625,264.953125 C470.125005,265.765629 470.796873,266.765619 471.171875,267.953125 C471.546877,269.140631 471.601564,270.335931 471.335938,271.539062 C471.070311,272.742194 470.500004,273.781246 469.625,274.65625 L460.578125,284.03125 C460.265623,284.343752 459.906252,284.5 459.5,284.5 C459.093748,284.5 458.734377,284.343752 458.421875,284.03125 L449.375,274.703125 C448.499996,273.79687 447.929689,272.742194 447.664062,271.539062 C447.398436,270.335931 447.453123,269.140631 447.828125,267.953125 C448.203127,266.765619 448.874995,265.765629 449.84375,264.953125 C450.687504,264.234371 451.64062,263.781251 452.703125,263.59375 C453.76563,263.406249 454.812495,263.484373 455.84375,263.828125 C456.875005,264.171877 457.781246,264.749996 458.5625,265.5625 L459.5,266.5 L460.4375,265.5625 C461.218754,264.749996 462.124995,264.171877 463.15625,263.828125 C464.187505,263.484373 465.23437,263.406249 466.296875,263.59375 C467.35938,263.781251 468.312496,264.234371 469.15625,264.953125 Z" transform="translate(-447 -263)"/>
</svg>
