<svg xmlns="http://www.w3.org/2000/svg" xmlns:xlink="http://www.w3.org/1999/xlink" viewBox="0 0 381.9 93.3"><image width="388" height="389" xlink:href="DC47E2E311E0ABF5.png" transform="scale(.24)" overflow="visible"/><path d="M144.1 60.1c2.2 0 4.1-.4 5.7-1.1 1.6-.7 3.3-1.9 5-3.6l4.2 4.3c-4.1 4.5-9 6.7-14.8 6.7-5.8 0-10.6-1.9-14.4-5.6-3.8-3.7-5.7-8.4-5.7-14.1 0-5.7 1.9-10.4 5.8-14.2 3.9-3.8 8.8-5.7 14.7-5.7 5.9 0 10.9 2.2 14.9 6.6l-4.1 4.5c-1.8-1.8-3.6-3-5.2-3.7-1.6-.7-3.5-1-5.7-1-3.9 0-7.1 1.3-9.7 3.8-2.6 2.5-3.9 5.7-3.9 9.6s1.3 7.1 3.9 9.7c2.7 2.5 5.8 3.8 9.3 3.8m51.5-32.5v6.2H172v9.8h23.6v6.3H172v9.8h23.6v6.2h-29.8V27.6zm15.6 38.3H205V27.6h15.7c7.7 0 13.2 5.6 13.2 13.1 0 5.1-2.5 9.2-6.4 11.4l10 13.8h-7.7l-8.7-12.1h-9.9v12.1zm5.4-18.3l-1.6-2.3 5.1-3.4 3.7 5.1c2.4-1 3.9-3.3 3.9-6.2 0-4-2.9-6.8-7-6.8h-9.5v13.7h5.4zm57.6-20v6.2h-23.5v9.8h23.5v6.3h-23.5v9.8h23.5v6.2h-29.8V27.6zm25.6 0c6.5 0 11.1 4.4 11.1 10.7 0 3.8-1.9 6.8-4.7 8.4 2.9 1.6 4.7 4.7 4.7 8.4 0 6.3-4.5 10.7-11.1 10.7h-16.2V27.6h16.2zm-.1 6.2h-9.9v9.8h10c2.7 0 4.7-2.1 4.7-5 .1-2.8-1.9-4.8-4.8-4.8m.2 16.1h-10v9.8h9.9c2.9 0 4.9-1.9 4.9-4.8-.1-2.9-2.1-5-4.8-5M348 27.6v6.2h-22.1v9.8H348v6.3h-22.1v9.8H348v6.2h-28.4V27.6zm15.7 0v32.1h18.2v6.2h-24.5V27.6z" fill="#fff"/><a xmlns="http://www.w3.org/2000/svg" xlink:href="/" xmlns:xlink="http://www.w3.org/1999/xlink" target="_top"><rect width="100%" height="100%" fill="none"/></a></svg>